# AST/ASF file generated using VICON BodyLanguage
# -----------------------------------------------
:version 1.10
:name VICON
:units
  mass 1.0
  length 0.45
  angle deg
:documentation
   .ast/.asf automatically generated from VICON data using
   VICON BodyBuilder and BodyLanguage model FoxedUp or BRILLIANT.MOD
:root
   order TX TY TZ RX RY RZ
   axis XYZ
   position 0 0 0  
   orientation 0 0 0 
:bonedata
  begin
     id 1 
     name lhipjoint
     direction 0.543289 -0.788407 0.288535 
     length 2.57127 
     axis 0 0 0  XYZ
  end
  begin
     id 2 
     name lfemur
     direction 0.34202 -0.939693 0  
     length 8.47298  
     axis 0 0 20  XYZ
    dof rx ry rz
    limits (-160.0 20.0)
           (-70.0 70.0)
           (-60.0 70.0)
  end
  begin
     id 3 
     name ltibia
     direction 0.34202 -0.939693 0   
     length 8.13367   
     axis 0 0 20   XYZ
    dof rx
    limits (-10.0 170.0)
  end
  begin
     id 4 
     name lfoot
     direction 0.114037 -0.313314 0.942778   
     length 2.67113   
     axis -90 7.62852e-016 20   XYZ
    dof rx rz
    limits (-45.0 90.0)
           (-70.0 20.0)
  end
  begin
     id 5 
     name ltoes
     direction 1.536e-011 -4.21847e-011 1   
     length 1.32217   
     axis -90 7.62852e-016 20   XYZ
    dof rx
    limits (-90.0 20.0)
  end
  begin
     id 6 
     name rhipjoint
     direction -0.571293 -0.770752 0.282074   
     length 2.63017  
     axis 0 0 0  XYZ 
  end
  begin
     id 7 
     name rfemur
     direction -0.34202 -0.939693 0   
     length 8.60885   
     axis 0 0 -20   XYZ
    dof rx ry rz
    limits (-160.0 20.0)
           (-70.0 70.0)
           (-70.0 60.0)
  end
  begin
     id 8 
     name rtibia
     direction -0.34202 -0.939693 0   
     length 8.07673   
     axis 0 0 -20   XYZ
    dof rx
    limits (-10.0 170.0)
 end
 begin
     id 9 
     name rfoot
     direction -0.121336 -0.333368 0.934956   
     length 2.81602  
     axis -90 -7.62852e-016 -20   XYZ
    dof rx rz
    limits (-45.0 90.0)
           (-20.0 70.0)
  end
  begin
     id 10 
     name rtoes
     direction -1.53491e-011 -4.21808e-011 1   
     length 1.38905   
     axis -90 -7.62852e-016 -20   XYZ
    dof rx
    limits (-90.0 20.0)
  end
  begin
     id 11 
     name lowerback
     direction 0.0136776 0.999869 -0.00861835   
     length 2.14087   
     axis 0 0 0   XYZ
    dof rx ry rz
    limits (-20.0 45.0)
           (-30.0 30.0)
           (-30.0 30.0)
  end
  begin
     id 12 
     name upperback
     direction -0.00789158 0.999804 0.0181308   
     length 2.14151   
     axis 0 0 0   XYZ
    dof rx ry rz
    limits (-20.0 45.0)
           (-30.0 30.0)
           (-30.0 30.0)
  end
  begin
     id 13 
     name thorax
     direction -0.0135231 0.999666 0.0220247   
     length 2.13644   
     axis 0 0 0   XYZ
    dof rx ry rz
    limits (-20.0 45.0)
           (-30.0 30.0)
           (-30.0 30.0)
  end
  begin
     id 14 
     name lowerneck
     direction -0.0392259 0.997317 0.0618018   
     length 1.65045   
     axis 0 0 0   XYZ
    dof rx ry rz
    limits (-20.0 45.0)
           (-30.0 30.0)
           (-30.0 30.0)
  end
  begin
     id 15 
     name upperneck
     direction 0.0765547 0.994276 -0.0745319   
     length 1.66045   
     axis 0 0 0   XYZ
    dof rx ry rz
    limits (-20.0 45.0)
           (-30.0 30.0)
           (-30.0 30.0)
  end
  begin
     id 16
     name head
     direction 0.0241564 0.999031 -0.036785  
     length 1.66594  
     axis 0 0 0   XYZ
    dof rx ry rz
    limits (-20.0 45.0)
           (-30.0 30.0)
           (-30.0 30.0)
  end
  begin
     id 17 
     name lclavicle
     direction 0.967398 0.249018 0.0461573  
     length 3.75176  
     axis 0 0 0   XYZ
    dof ry rz
    limits (-20.0 10.0)
           (0.0 20.0)
  end
  begin
     id 18 
     name lhumerus
     direction 1 -4.48963e-011 -3.05005e-027   
     length 5.93342   
     axis 180 -30 -90   XYZ
    dof rx ry rz
    limits (-60.0 90.0)
           (-90.0 90.0)
           (-90.0 90.0)
  end
  begin
     id 19
     name lradius
     direction 1 -4.48957e-011 1.07006e-026   
     length 3.94763   
     axis 180 -30 -90   XYZ
    dof rx
    limits (-10.0 170.0)
  end
  begin
     id 20
     name lwrist
     direction 1 -4.48978e-011 1.92422e-026   
     length 1.97382   
     axis -1.18182e-014 90 90   XYZ
    dof ry
    limits (-180.0 0.0)
 end
  begin
     id 21 
     name lhand
     direction 1 -4.48931e-011 3.84844e-026   
     length 0.560187   
     axis -2.45563e-014 90 90   XYZ
    dof rx rz
    limits (-90.0 90.0)
           (-45.0 45.0)
  end
  begin
     id 22 
     name lfingers
     direction 1 -4.48952e-011 7.69687e-026   
     length 0.451637   
     axis -4.91126e-014 90 90   XYZ
    dof rx
    limits (0.0 90.0)
  end
  begin
     id 23
     name lthumb
     direction 0.707107 -6.34901e-011 0.707107   
     length 0.648463   
     axis -90 45 2.85299e-015   XYZ
    dof rx rz
    limits (-45.0 45.0)
           (-45.0 45.0)
  end
  begin
     id 24 
     name rclavicle
     direction -0.965946 0.258716 0.00371831   
     length 3.63667  
     axis 0 0 0   XYZ 
    dof ry rz
    limits (-10.0 20.0)
           (-20.0 0.0)
  end
  begin
     id 25 
     name rhumerus
     direction -1 -4.48966e-011 -1.78361e-028  
     length 6.28647   
     axis 180 30 90   XYZ
    dof rx ry rz
    limits (-90.0 60.0)
           (-90.0 90.0)
           (-90.0 90.0)
  end
  begin
     id 26 
     name rradius
     direction -1 -4.48961e-011 1.05248e-026   
     length 3.81645   
     axis 180 30 90   XYZ
    dof rx
    limits (-10.0 170.0)
  end
  begin
     id 27 
     name rwrist
     direction -1 -4.48979e-011 1.92422e-026   
     length 1.90822   
     axis -1.18182e-014 -90 -90   XYZ
    dof ry
    limits (-180.0 0.0)
  end
  begin
     id 28
     name rhand
     direction -1 -4.48937e-011 3.84844e-026   
     length 0.646185   
     axis -2.45563e-014 -90 -90   XYZ
    dof rx rz
    limits (-90.0 90.0)
           (-45.0 45.0)
  end
  begin
     id 29
     name rfingers
     direction -1 -4.48953e-011 7.69687e-026   
     length 0.520971   
     axis -4.91126e-014 -90 -90   XYZ
    dof rx
    limits (0.0 90.0)
  end
  begin
     id 30
     name rthumb
     direction -0.707107 -6.3494e-011 0.707107   
     length 0.748013   
     axis -90 -45 -2.85299e-015   XYZ
    dof rx rz
    limits (-45.0 45.0)
           (-45.0 45.0)
  end
:hierarchy
  begin
    root lhipjoint rhipjoint lowerback
    lhipjoint lfemur
    lfemur ltibia
    ltibia lfoot
    lfoot ltoes
    rhipjoint rfemur
    rfemur rtibia
    rtibia rfoot
    rfoot rtoes
    lowerback upperback
    upperback thorax
    thorax lowerneck lclavicle rclavicle
    lowerneck upperneck
    upperneck head
    lclavicle lhumerus
    lhumerus lradius
    lradius lwrist
    lwrist lhand lthumb
    lhand lfingers
    rclavicle rhumerus
    rhumerus rradius
    rradius rwrist
    rwrist rhand rthumb
    rhand rfingers
  end

#!OML:ASF H:\HAZMAT1\Patient Classification 1\Patient 3\Session 1\dancer.ASF
:FULLY-SPECIFIED
:DEGREES
149
upperback -1.324950 -9.811530 1.923460
rfoot -15.635500 -7.100420
lradius 35.780899
lthumb 22.015600 36.778999
rradius 23.608601
lwrist -3.036110
rhand -33.114300 -33.300301
rhumerus -60.652699 -14.956000 -9.569910
lowerneck -5.997740 6.407610 6.034020
lhand -3.727480 8.011980
ltibia 16.363001
head 4.963810 4.099970 -1.142260
rwrist 6.052460
lfingers 7.125020
rtoes -14.935900
lowerback -0.722707 -7.354210 2.480150
rfingers 7.125020
lclavicle -0.000000 -0.000000
upperneck 12.106300 8.159250 -2.190680
rfemur -59.057899 -3.746390 12.024900
thorax -1.036420 -4.926800 0.633301
rclavicle -0.000000 -0.000000
rtibia 57.973202
lfoot -29.356199 17.574499
lhumerus 23.232201 -8.505770 11.067000
rthumb -6.324580 -63.185799
root 27.495199 18.167000 -17.951200 201.259995 245.412994 -901.148987
ltoes -12.506300
lfemur -0.923804 -16.402201 -13.528100
150
upperback -1.543260 -6.207510 0.346385
rfoot -27.523500 -6.104900
lradius 24.144501
lthumb 5.064770 49.074001
rradius 26.454000
lwrist -7.430170
rhand -33.384102 -33.120998
rhumerus -51.606998 -10.093200 -16.784401
lowerneck -6.869180 3.759140 4.743620
lhand -21.320601 19.154499
ltibia 31.009701
head 5.475780 2.335630 -0.529287
rwrist 2.786600
lfingers 7.125020
rtoes -23.660900
lowerback -1.017390 -4.639050 3.163660
rfingers 7.125020
lclavicle 0.000000 0.000000
upperneck 14.032700 4.403950 -0.153852
rfemur -32.858799 4.309300 9.687010
thorax -1.313030 -3.145130 -1.378360
rclavicle 0.000000 0.000000
rtibia 56.378799
lfoot -31.927000 13.540700
lhumerus -7.807100 11.255300 10.635400
rthumb -6.585010 -62.998699
root 27.005800 17.815901 -19.116699 202.917007 237.302994 -906.546997
ltoes -20.460699
lfemur -7.021150 -19.865700 -3.373570
151
upperback -1.113070 -1.540430 0.219846
rfoot -38.203300 -14.129300
lradius 20.038401
lthumb 14.164000 44.050701
rradius 37.761902
lwrist -12.000800
rhand -18.446800 -15.854800
rhumerus -37.106602 9.635720 -47.936100
lowerneck -5.488110 -0.308356 0.673704
lhand -11.888900 14.553600
ltibia 77.773697
head 4.549950 -0.282375 0.685078
rwrist -10.146000
lfingers 7.125020
rtoes -4.588400
lowerback 0.894651 -1.237850 6.762190
rfingers 7.125020
lclavicle 0.000000 0.000000
upperneck 12.146900 -0.897817 2.756410
rfemur -16.793400 4.458640 24.009600
thorax -1.825650 -0.859087 -3.522500
rclavicle 0.000000 0.000000
rtibia 38.167000
lfoot -5.365820 -0.209504
lhumerus -45.165199 10.350600 21.700500
rthumb 7.839070 -45.689499
root 25.256300 17.814699 -20.061800 205.899002 229.278000 -911.843018
ltoes -7.677800
lfemur -46.136902 -10.895300 8.678480
152
upperback -0.872294 3.246670 0.736631
rfoot -42.721298 -16.378901
lradius 18.007200
lthumb 24.996500 37.262699
rradius 61.712502
lwrist -10.809700
rhand -11.533500 -13.542700
rhumerus -6.139750 32.131599 -49.738800
lowerneck -4.013310 -4.544930 -1.116910
lhand -0.619887 8.877940
ltibia 53.131401
head 3.840770 -3.068270 1.555220
rwrist -31.580601
lfingers 7.125020
rtoes -14.479300
lowerback 1.652110 2.271610 9.243100
rfingers 7.125020
lclavicle -0.000000 0.000000
upperneck 8.873860 -6.514710 5.015960
rfemur -7.059100 -0.918428 32.444698
thorax -1.367340 1.525320 -4.485910
rclavicle -0.000000 0.000000
rtibia 37.636200
lfoot -9.778200 9.835660
lhumerus -67.440903 10.739900 52.230701
rthumb 14.506500 -43.015598
root 22.926701 16.947901 -19.398300 206.289001 222.899002 -914.382019
ltoes 3.929630
lfemur -71.147598 -5.971470 -4.592660
